<?xml version="1.0" standalone="no"?>
<!DOCTYPE svg PUBLIC "-//W3C//DTD SVG 20010904//EN"
 "http://www.w3.org/TR/2001/REC-SVG-20010904/DTD/svg10.dtd">
<svg version="1.0" xmlns="http://www.w3.org/2000/svg"
 width="433.000000pt" height="433.000000pt" viewBox="0 0 433.000000 433.000000"
 preserveAspectRatio="xMidYMid meet">
<metadata>
Created by potrace 1.14, written by Peter Selinger 2001-2017
</metadata>
<g transform="translate(0.000000,433.000000) scale(0.100000,-0.100000)"
fill="#000000" stroke="none">
<path d="M2118 3885 c-2 -1 -43 -5 -91 -9 -65 -4 -106 -14 -156 -35 -38 -16
-73 -26 -77 -23 -4 4 -4 1 0 -5 4 -7 3 -13 -3 -13 -5 0 -26 -16 -45 -35 -20
-19 -43 -35 -51 -35 -8 0 -15 -4 -15 -9 0 -6 -8 -8 -19 -6 -13 2 -18 -2 -17
-18 1 -14 -11 -29 -34 -45 -19 -13 -34 -28 -32 -33 1 -5 -1 -8 -5 -8 -22 4
-33 -3 -33 -20 0 -10 -7 -24 -15 -31 -9 -7 -14 -19 -11 -26 3 -8 -3 -31 -13
-51 -73 -151 -97 -406 -50 -539 l22 -63 -21 -18 c-26 -23 -40 -98 -31 -176 10
-86 65 -222 96 -236 13 -6 28 -9 32 -7 13 8 36 -13 37 -34 1 -11 2 -21 3 -22
1 -2 4 -16 6 -33 4 -32 12 -70 15 -70 1 0 3 -7 5 -16 6 -33 59 -145 85 -179
58 -78 82 -121 91 -157 15 -64 11 -108 -12 -134 -12 -13 -33 -38 -48 -55 -16
-20 -48 -39 -86 -52 -88 -30 -212 -84 -338 -148 -210 -106 -267 -134 -275
-134 -15 0 -90 -70 -110 -103 -11 -17 -30 -60 -41 -94 -19 -57 -26 -92 -36
-199 -2 -23 -6 -56 -9 -75 -19 -107 -56 -312 -66 -352 -6 -27 -13 -67 -15 -90
-3 -23 -8 -50 -11 -59 -6 -19 -9 -34 -19 -98 -4 -25 -9 -54 -11 -65 -7 -37
-16 -100 -19 -126 -1 -14 -5 -31 -9 -37 -4 -7 -9 -34 -11 -62 l-5 -50 1831 0
1830 0 -2 145 c0 80 -4 145 -8 145 -4 0 -6 15 -6 33 0 17 -4 38 -9 45 -4 6 -6
12 -4 12 5 0 0 33 -16 106 -2 12 -7 39 -11 60 -7 40 -12 65 -15 74 -1 3 -2 8
-1 12 0 4 -10 54 -24 110 -13 57 -26 117 -29 133 -14 91 -19 116 -27 121 -5 3
-7 9 -4 14 4 7 -1 43 -19 135 -8 42 -47 140 -56 143 -6 2 -10 10 -10 18 0 8
-3 13 -7 12 -8 -2 -65 23 -73 32 -11 12 -179 90 -238 111 -34 12 -65 26 -68
30 -3 5 -12 9 -19 9 -8 0 -44 13 -79 30 -105 48 -141 63 -148 64 -4 1 -13 7
-19 14 -7 6 -18 12 -25 12 -10 0 -38 11 -161 66 -17 8 -35 14 -40 14 -5 0 -33
11 -61 25 -29 14 -56 25 -61 25 -21 0 -98 41 -118 62 -11 13 -49 51 -84 84
-35 34 -83 82 -107 108 -23 25 -50 46 -60 47 -9 1 -28 2 -42 3 -14 0 -29 4
-35 8 -11 7 -12 107 -2 153 16 68 17 75 31 155 3 14 5 33 5 42 1 14 10 17 49
16 47 -1 92 21 92 46 0 5 6 17 14 25 16 19 67 227 70 285 1 22 -5 62 -14 87
-9 25 -15 54 -13 65 11 53 14 75 18 144 2 41 4 75 5 75 2 0 11 58 11 70 1 28
-10 94 -21 120 -6 17 -11 31 -11 33 1 1 1 3 0 5 0 1 -2 12 -4 23 -4 17 -14 47
-31 84 -1 3 -5 15 -9 28 -4 12 -11 22 -16 22 -5 0 -9 5 -9 12 0 7 -9 21 -20
33 -159 164 -197 195 -238 195 -11 0 -27 7 -35 15 -8 8 -17 11 -21 8 -3 -4 -6
0 -6 7 0 7 -3 11 -6 7 -3 -3 -31 4 -62 15 -32 10 -70 21 -87 24 -16 2 -37 6
-45 8 -51 10 -167 25 -172 21z"/>
</g>
</svg>
